<?xml version="1.0" encoding="UTF-8" standalone="no"?>
<!DOCTYPE svg PUBLIC "-//W3C//DTD SVG 1.1//EN" "http://www.w3.org/Graphics/SVG/1.1/DTD/svg11.dtd">
<svg width="100%" height="100%" viewBox="0 0 64 64" version="1.1" xmlns="http://www.w3.org/2000/svg" xmlns:xlink="http://www.w3.org/1999/xlink" xml:space="preserve" xmlns:serif="http://www.serif.com/" style="fill-rule:evenodd;clip-rule:evenodd;stroke-linejoin:round;stroke-miterlimit:1.41421;">
    <g transform="matrix(1,0,0,1,-305.996,-691.499)">
        <path id="Forma-1" serif:id="Forma 1" d="M336.14,695.995C336.653,695.995 337.068,696.417 337.068,696.939L337.068,698.827L342.639,698.827C343.151,698.827 343.567,699.249 343.567,699.771L343.567,701.659L350.994,701.659C351.507,701.659 351.923,702.081 351.923,702.603L351.923,724.314C351.923,724.837 351.507,725.259 350.994,725.259C350.482,725.259 350.066,724.837 350.066,724.314L350.066,703.547L343.567,703.547L343.567,705.435C343.567,705.957 343.151,706.378 342.639,706.378L321.286,706.378C320.773,706.378 320.357,705.957 320.357,705.435L320.357,703.547L313.859,703.547L313.859,748.859L335.212,748.859C335.725,748.859 336.14,749.281 336.14,749.803C336.14,750.325 335.724,750.747 335.212,750.747L312.93,750.747C312.418,750.747 312.002,750.325 312.002,749.803L312.002,702.603C312.002,702.081 312.417,701.659 312.93,701.659L320.357,701.659L320.357,699.771C320.357,699.249 320.772,698.828 321.286,698.827L326.856,698.827L326.856,696.939C326.856,696.417 327.271,695.995 327.784,695.995L336.14,695.995ZM330.57,739.419C331.083,739.42 331.498,739.842 331.498,740.362C331.498,740.884 331.083,741.306 330.57,741.307L318.501,741.307C317.988,741.307 317.572,740.885 317.572,740.362C317.572,739.842 317.987,739.42 318.501,739.419L330.57,739.419ZM338.925,733.755C339.439,733.756 339.854,734.177 339.854,734.699C339.854,735.22 339.439,735.642 338.925,735.643L318.501,735.643C317.988,735.643 317.572,735.221 317.572,734.699C317.572,734.177 317.987,733.756 318.501,733.755L338.925,733.755ZM342.639,728.091C343.152,728.091 343.567,728.513 343.567,729.035C343.567,729.556 343.152,729.978 342.639,729.979L318.501,729.979C317.988,729.979 317.572,729.557 317.572,729.035C317.572,728.513 317.987,728.091 318.501,728.091L342.639,728.091ZM345.424,722.427C345.937,722.428 346.352,722.849 346.352,723.371C346.352,723.892 345.938,724.314 345.424,724.314L338.925,724.314C338.413,724.314 337.997,723.893 337.997,723.371C337.997,722.849 338.412,722.428 338.925,722.427L345.424,722.427ZM331.498,722.427C332.011,722.428 332.426,722.849 332.426,723.371C332.426,723.892 332.011,724.314 331.498,724.314L318.501,724.314C317.988,724.314 317.572,723.893 317.572,723.371C317.572,722.849 317.987,722.428 318.501,722.427L331.498,722.427ZM335.871,724.04C336.038,723.861 336.14,723.615 336.14,723.37C336.14,723.124 336.038,722.879 335.871,722.7C335.518,722.35 334.896,722.35 334.552,722.7C334.385,722.879 334.283,723.124 334.283,723.37C334.283,723.626 334.385,723.861 334.552,724.04C334.729,724.211 334.97,724.314 335.212,724.314C335.453,724.314 335.695,724.211 335.871,724.04ZM345.424,716.763C345.938,716.764 346.352,717.185 346.352,717.707C346.352,718.228 345.937,718.65 345.424,718.651L318.501,718.651C317.988,718.651 317.572,718.228 317.572,717.707C317.572,717.185 317.987,716.764 318.501,716.763L345.424,716.763ZM330.57,711.099C331.083,711.099 331.498,711.521 331.498,712.043C331.498,712.564 331.083,712.986 330.57,712.987L318.501,712.987C317.988,712.987 317.572,712.565 317.572,712.043C317.572,711.521 317.987,711.099 318.501,711.099L330.57,711.099ZM341.71,704.491L341.71,700.715L337.068,700.715L337.068,702.603C337.068,703.125 336.652,703.547 336.14,703.547L327.784,703.547C327.272,703.547 326.856,703.125 326.856,702.603L326.856,700.715L322.214,700.715L322.214,704.491L341.71,704.491ZM335.212,701.659L335.212,697.882L328.713,697.882L328.713,701.659L335.212,701.659Z" style="fill:white;"/>
        <path id="Forma-1-copy" serif:id="Forma 1 copy" d="M363.18,729.718L360.535,727.028C359.488,725.964 357.663,725.964 356.616,727.028L342.327,741.557L340.358,748.9L339.876,749.39C339.516,749.757 339.515,750.348 339.87,750.716L339.866,750.735L339.883,750.731C340.063,750.91 340.297,751.003 340.532,751.003C340.77,751.003 341.008,750.91 341.189,750.726L341.671,750.235L348.892,748.233L363.18,733.704C364.261,732.604 364.261,730.817 363.18,729.718ZM344.47,742.047L353.98,732.377L357.919,736.383L348.41,746.052L344.47,742.047ZM343.633,743.865L346.622,746.905L342.512,748.045L343.633,743.865ZM361.868,732.368L359.232,735.048L355.293,731.043L357.928,728.363C358.274,728.01 358.876,728.01 359.222,728.363L361.868,731.053C362.224,731.415 362.224,732.005 361.868,732.368Z" style="fill:white;fill-rule:nonzero;"/>
    </g>
</svg>
