<?xml version="1.0" encoding="UTF-8" standalone="no"?>
<!DOCTYPE svg PUBLIC "-//W3C//DTD SVG 1.1//EN" "http://www.w3.org/Graphics/SVG/1.1/DTD/svg11.dtd">
<svg width="100%" height="100%" viewBox="0 0 64 64" version="1.1" xmlns="http://www.w3.org/2000/svg" xmlns:xlink="http://www.w3.org/1999/xlink" xml:space="preserve" xmlns:serif="http://www.serif.com/" style="fill-rule:evenodd;clip-rule:evenodd;stroke-linejoin:round;stroke-miterlimit:1.41421;">
    <g>
        <g id="Forma-1" serif:id="Forma 1" transform="matrix(1,0,0,1,-1192.98,-693.499)">
            <path d="M1210.88,713.999L1210.88,730.785L1224.94,730.785L1224.94,733.594L1221.97,733.594L1219.15,756.999L1199.78,756.999L1196.97,733.594L1194,733.594L1194,730.785L1208.06,730.785L1208.06,713.999L1210.88,713.999ZM1233.47,723.163L1233.47,745.952L1234.97,745.952C1236.84,745.952 1238.6,746.642 1239.91,747.896C1241.26,749.179 1242,750.916 1242,752.786L1242,756.999L1239.19,756.999L1239.19,754.191L1236.38,754.191L1236.38,756.999L1233.57,756.999L1233.57,754.191L1230.75,754.191L1230.75,756.999L1227.94,756.999L1227.94,754.191L1225.13,754.191L1225.13,756.999L1222.31,756.999L1222.31,752.786C1222.31,750.916 1223.06,749.179 1224.4,747.896C1225.71,746.647 1227.46,745.957 1229.35,745.952L1230.66,745.952L1230.66,723.163L1233.47,723.163ZM1216.66,754.191L1218.24,741.012C1218.22,741.042 1218.19,741.073 1218.16,741.102C1215.83,743.54 1212.83,744.828 1209.47,744.828C1206.11,744.828 1203.1,743.54 1200.77,741.103C1200.75,741.077 1200.72,741.049 1200.7,741.022L1202.28,754.191L1216.66,754.191ZM1238.94,751.382C1238.34,749.829 1236.81,748.76 1234.97,748.76L1229.35,748.76C1227.5,748.76 1225.97,749.836 1225.38,751.382L1238.94,751.382ZM1209.47,742.019C1204.83,742.019 1201.06,738.627 1199.89,733.594L1219.04,733.594C1217.85,738.627 1214.09,742.019 1209.47,742.019Z" style="fill:white;"/>
        </g>
        <g id="Forma-11" serif:id="Forma 1" transform="matrix(1,0,0,1,-1192.98,-693.499)">
            <path d="M1233.11,715.817C1232.87,715.812 1232.64,715.668 1232.54,715.477C1232.45,715.283 1232.45,715.041 1232.54,714.847C1232.59,714.799 1232.64,714.702 1232.73,714.653C1232.83,714.556 1232.97,714.508 1233.11,714.508C1234.16,714.508 1243.58,714.12 1243.58,702.969C1243.58,702.629 1243.86,702.338 1244.2,702.338C1244.53,702.338 1244.82,702.629 1244.82,702.969C1244.82,714.12 1254.23,714.508 1255.33,714.508C1255.52,714.556 1255.76,714.653 1255.85,714.847C1255.99,715.041 1255.99,715.283 1255.9,715.477C1255.76,715.671 1255.57,715.817 1255.33,715.817C1254.23,715.817 1244.86,716.253 1244.86,727.356C1244.86,727.695 1244.58,727.986 1244.24,727.986C1243.91,727.986 1243.63,727.695 1243.63,727.356C1243.63,716.242 1234.32,715.82 1233.16,715.817L1233.11,715.817ZM1215.61,718.393C1216.24,718.39 1221.32,718.162 1221.32,712.09C1221.32,711.751 1221.6,713.222 1221.94,713.222C1222.27,713.222 1222.55,711.751 1222.55,712.09C1222.55,718.198 1227.69,718.393 1228.26,718.393C1228.6,718.393 1228.88,718.684 1228.88,719.023C1228.88,719.41 1228.6,719.701 1228.26,719.701L1228.21,719.701C1227.64,719.701 1222.51,719.895 1222.51,726.004C1222.51,726.392 1222.22,726.683 1221.94,726.586C1221.6,726.586 1221.32,726.295 1221.32,725.956C1221.32,719.847 1216.23,719.653 1215.61,719.653C1215.28,719.653 1214.99,719.362 1214.99,719.023C1214.99,718.687 1215.22,718.447 1215.56,718.393L1215.61,718.393ZM1244.2,722.604C1242.82,717.999 1239.44,716.011 1236.78,715.138C1239.44,714.265 1242.82,712.278 1244.2,707.672C1245.58,712.278 1248.95,714.265 1251.62,715.138C1248.95,716.011 1245.58,717.999 1244.2,722.604ZM1221.89,722.514C1221.08,720.671 1219.75,719.653 1218.46,719.071C1219.84,718.49 1221.13,717.374 1221.89,715.629C1222.65,717.472 1224.03,718.49 1225.31,719.071C1223.93,719.653 1222.65,720.768 1221.89,722.514ZM1221.08,700.932C1221.71,700.93 1226.79,700.702 1226.79,694.629C1226.79,694.29 1227.07,693.999 1227.41,693.999C1227.74,693.999 1228.03,694.29 1228.03,694.629C1228.03,700.738 1233.16,700.932 1233.73,700.932C1234.07,700.932 1234.35,701.223 1234.35,701.563C1234.35,701.95 1234.07,702.241 1233.73,702.241L1233.68,702.241C1233.11,702.241 1227.98,702.435 1227.98,708.544C1227.98,708.884 1227.69,709.174 1227.41,709.126C1227.07,709.126 1226.79,708.835 1226.79,708.496C1226.79,702.387 1221.7,702.193 1221.08,702.193C1220.75,702.193 1220.46,701.902 1220.46,701.563C1220.46,701.227 1220.69,700.985 1221.03,700.932L1221.08,700.932ZM1227.36,705.005C1226.6,703.163 1225.22,702.144 1223.93,701.563C1225.31,700.98 1226.6,699.866 1227.36,698.12C1228.12,699.963 1229.5,700.98 1230.78,701.563C1229.4,702.144 1228.12,703.259 1227.36,705.005Z" style="fill:white;"/>
        </g>
    </g>
</svg>
