<?xml version="1.0" encoding="UTF-8" standalone="no"?>
<!DOCTYPE svg PUBLIC "-//W3C//DTD SVG 1.1//EN" "http://www.w3.org/Graphics/SVG/1.1/DTD/svg11.dtd">
<svg width="100%" height="100%" viewBox="0 0 64 64" version="1.1" xmlns="http://www.w3.org/2000/svg" xmlns:xlink="http://www.w3.org/1999/xlink" xml:space="preserve" xmlns:serif="http://www.serif.com/" style="fill-rule:evenodd;clip-rule:evenodd;stroke-linejoin:round;stroke-miterlimit:1.41421;">
    <g transform="matrix(1,0,0,1,-895,-695.999)">
        <path id="Forma-1" serif:id="Forma 1" d="M954,742.806L954,745.418C954,747.82 952.046,749.773 949.645,749.773L936.581,749.773L936.581,753.257L940.064,753.257L940.064,754.999L912.193,754.999L912.193,753.257L915.677,753.257L915.677,749.773L904.355,749.773C901.951,749.771 900,747.818 900,745.418L900,742.806L954,742.806ZM934.839,753.257L934.839,749.773L917.419,749.773L917.419,753.257L934.839,753.257ZM949.645,748.031C951.087,748.03 952.258,746.858 952.258,745.418L952.258,744.548L901.742,744.548L901.742,745.418C901.742,746.859 902.914,748.031 904.355,748.031L949.645,748.031ZM954,741.064L952.258,741.064L952.258,713.192C952.258,711.752 951.086,710.58 949.645,710.58L949.645,708.838C952.046,708.838 954,710.791 954,713.192L954,741.064ZM923.516,708.838L923.516,710.58L904.355,710.58C902.914,710.58 901.742,711.752 901.742,713.192L901.742,741.064L900,741.064L900,713.192C900,710.793 901.951,708.84 904.355,708.838L923.516,708.838ZM907.839,716.677L924.387,716.677L924.387,718.418L907.839,718.418C907.356,718.42 906.968,718.81 906.968,719.29L906.968,720.16L926.129,720.16L926.129,721.902L906.968,721.902L906.968,723.644L931.355,723.644L931.355,725.386L906.968,725.386L906.968,736.709C906.968,737.19 907.358,737.58 907.839,737.58L935.71,737.58C936.192,737.578 936.581,737.188 936.581,736.709L936.581,725.386L938.322,725.386L938.322,736.709C938.322,738.148 937.152,739.32 935.71,739.322L907.839,739.322C906.398,739.322 905.226,738.149 905.226,736.709L905.226,719.29C905.226,717.85 906.396,716.679 907.839,716.677ZM914.806,730.074C914.167,729.342 913.24,728.87 912.193,728.87C910.272,728.87 908.71,730.433 908.71,732.354C908.71,734.275 910.272,735.838 912.193,735.838C913.24,735.838 914.167,735.366 914.806,734.634C915.446,735.366 916.373,735.838 917.419,735.838C919.341,735.838 920.903,734.275 920.903,732.354C920.903,730.433 919.341,728.87 917.419,728.87C916.373,728.87 915.446,729.342 914.806,730.074ZM912.193,734.096C911.233,734.096 910.451,733.315 910.451,732.354C910.451,731.393 911.233,730.612 912.193,730.612C913.154,730.612 913.935,731.393 913.935,732.354C913.935,733.315 913.154,734.096 912.193,734.096ZM919.161,732.354C919.161,733.315 918.38,734.096 917.419,734.096C916.459,734.096 915.677,733.315 915.677,732.354C915.677,731.393 916.459,730.612 917.419,730.612C918.38,730.612 919.161,731.393 919.161,732.354Z" style="fill:white;"/>
        <path id="Forma-1-copy-3" serif:id="Forma 1 copy 3" d="M936.581,723.644C942.824,723.644 947.903,718.565 947.903,712.322C947.903,706.079 942.824,700.999 936.581,700.999C930.337,700.999 925.258,706.079 925.258,712.322C925.258,718.565 930.337,723.644 936.581,723.644ZM936.581,702.741C941.863,702.741 946.161,707.039 946.161,712.322C946.161,717.604 941.863,721.902 936.581,721.902C931.298,721.902 927,717.604 927,712.322C927,707.039 931.298,702.741 936.581,702.741Z" style="fill:white;fill-rule:nonzero;"/>
        <path id="Forma-11" serif:id="Forma 1" d="M940.202,715.903C939.484,716.687 938.565,717.119 937.613,717.119C936.054,717.119 934.704,715.982 934.069,714.338L938.4,714.338C938.775,714.338 939.08,714.022 939.08,713.632C939.08,713.243 938.775,712.926 938.4,712.926L933.723,712.926C933.697,712.696 933.682,712.46 933.682,712.22C933.682,711.95 933.7,711.685 933.735,711.426L938.4,711.426C938.775,711.426 939.08,711.11 939.08,710.72C939.08,710.33 938.775,710.014 938.4,710.014L934.105,710.014C934.754,708.419 936.083,707.322 937.613,707.322C938.565,707.322 939.484,707.754 940.202,708.538C940.461,708.82 940.891,708.832 941.163,708.563C941.436,708.295 941.447,707.848 941.188,707.565C940.211,706.498 938.941,705.91 937.614,705.91C935.347,705.91 933.409,707.62 932.657,710.014L930.834,710.014C930.459,710.014 930.154,710.33 930.154,710.72C930.154,711.11 930.459,711.426 930.834,711.426L932.365,711.426C932.338,711.687 932.322,711.951 932.322,712.22C932.322,712.459 932.334,712.695 932.356,712.927L930.834,712.927C930.459,712.927 930.154,713.243 930.154,713.633C930.154,714.023 930.459,714.338 930.834,714.338L932.63,714.338C933.361,716.779 935.319,718.531 937.613,718.531C938.941,718.531 940.211,717.943 941.188,716.875C941.446,716.593 941.436,716.146 941.163,715.878C940.891,715.609 940.461,715.62 940.202,715.903Z" style="fill:white;fill-rule:nonzero;"/>
    </g>
</svg>
