<?xml version="1.0" standalone="no"?>
<!DOCTYPE svg PUBLIC "-//W3C//DTD SVG 20010904//EN"
 "http://www.w3.org/TR/2001/REC-SVG-20010904/DTD/svg10.dtd">
<svg version="1.0" xmlns="http://www.w3.org/2000/svg"
 width="118.000000pt" height="118.000000pt" viewBox="0 0 118.000000 118.000000"
 preserveAspectRatio="xMidYMid meet">
<metadata>
Created by potrace 1.14, written by Peter Selinger 2001-2017
</metadata>
<g transform="translate(0.000000,118.000000) scale(0.100000,-0.100000)"
fill="#000000" stroke="none">
<path d="M359 1008 c0 -7 -1 -136 -1 -287 -1 -223 2 -275 13 -282 11 -7 15 8
19 81 5 80 8 92 36 127 80 101 219 110 311 21 41 -39 54 -80 55 -163 1 -53 4
-65 17 -65 14 0 16 30 16 287 0 262 -2 288 -17 291 -15 3 -17 -11 -17 -150 1
-84 0 -168 0 -186 l-1 -33 -32 37 c-84 96 -235 100 -325 9 l-43 -42 0 183 c0
157 -2 184 -15 184 -8 0 -15 -6 -16 -12z"/>
<path d="M2 325 c0 -16 2 -22 5 -12 2 9 2 23 0 30 -3 6 -5 -1 -5 -18z"/>
<path d="M295 275 c0 -41 3 -75 8 -75 4 0 7 34 7 75 0 41 -3 75 -7 75 -5 0 -8
-34 -8 -75z"/>
<path d="M717 274 c3 -103 13 -108 13 -6 0 45 -3 82 -7 82 -5 0 -7 -34 -6 -76z"/>
<path d="M185 308 c-47 -27 -52 -77 -9 -105 25 -16 74 -11 74 7 0 6 -10 5 -25
-2 -21 -9 -28 -8 -45 7 -28 26 -26 63 5 77 14 6 25 15 25 20 0 10 -1 10 -25
-4z"/>
<path d="M810 312 c-50 -16 -65 -67 -30 -102 20 -20 60 -28 60 -11 0 5 -8 7
-18 4 -10 -2 -26 5 -36 16 -39 43 11 100 63 72 15 -8 21 -23 23 -59 2 -34 5
-40 9 -22 13 58 -28 116 -71 102z"/>
<path d="M1103 309 c-25 -9 -43 -38 -43 -68 0 -23 35 -51 66 -51 23 0 54 29
54 51 0 9 -5 7 -12 -6 -22 -39 -45 -44 -78 -17 -31 25 -19 69 23 80 17 4 27
11 22 14 -6 3 -20 2 -32 -3z"/>
<path d="M17 296 c-9 -7 -17 -24 -16 -37 l0 -24 10 25 c11 27 26 40 49 40 29
0 43 -19 50 -62 4 -33 7 -38 12 -21 3 12 -1 37 -11 55 -12 25 -23 34 -46 35
-16 2 -38 -3 -48 -11z"/>
<path d="M234 291 l19 -21 -34 -1 c-26 0 -30 -2 -15 -8 11 -4 30 -6 43 -3 22
4 23 6 10 25 -8 12 -20 23 -28 25 -9 3 -8 -2 5 -17z"/>
<path d="M356 287 c-15 -22 -21 -141 -7 -133 4 3 6 29 6 58 -2 59 15 88 50 88
23 0 37 -12 48 -43 8 -21 -28 -61 -49 -53 -8 3 -14 1 -14 -4 0 -18 39 -10 60
12 24 26 25 46 4 76 -21 31 -78 31 -98 -1z"/>
<path d="M506 294 c-33 -33 -8 -104 36 -104 23 0 48 11 48 21 0 5 -11 3 -25
-3 -22 -10 -29 -9 -47 9 -39 39 -2 95 52 78 32 -10 23 -23 -17 -28 -35 -3 -34
-4 10 -5 51 -2 58 5 29 31 -23 21 -66 22 -86 1z"/>
<path d="M657 298 c-18 -14 -33 -78 -18 -78 5 0 11 15 13 32 2 23 11 36 28 45
15 8 19 13 9 13 -8 0 -23 -6 -32 -12z"/>
<path d="M926 288 c-17 -24 -22 -88 -8 -88 5 0 8 16 7 34 -4 62 67 92 90 39 9
-22 25 -31 25 -15 0 25 -34 52 -65 52 -24 0 -39 -7 -49 -22z"/>
<path d="M1022 213 c-1 -22 0 -24 8 -13 12 18 13 40 2 40 -4 0 -9 -12 -10 -27z"/>
<path d="M1 214 c0 -11 3 -14 6 -6 3 7 2 16 -1 19 -3 4 -6 -2 -5 -13z"/>
</g>
</svg>
